<svg width="128" height="128" viewBox="0 0 128 128" fill="none" xmlns="http://www.w3.org/2000/svg">
  <rect width="128" height="128" rx="32" fill="#0B1525"/>
  <rect x="59" y="25" width="10" height="54" rx="5" fill="#F4E6D0"/>
  <rect x="48" y="79" width="32" height="10" rx="5" fill="#F4E6D0"/>
  <path d="M70 52C79.5 40 92 37 104 39.5C94 46 84 56 77.5 68.5" stroke="#EDB47A" stroke-width="6" stroke-linecap="round"/>
  <path d="M69 54C73 45 81.5 39.5 93 38.5C90 47 83.5 56.5 74 62.5" fill="#79A790" fill-opacity="0.95"/>
  <path d="M29 80C29 58 43 42 63.5 42C84 42 99 58 99 80" stroke="#79A790" stroke-opacity="0.8" stroke-width="3.5"/>
  <path d="M22 92C35 68 58 57 86 59C98 60 107 63 112 67" stroke="#EDB47A" stroke-width="5" stroke-linecap="round" stroke-opacity="0.9"/>
  <circle cx="103" cy="66" r="4" fill="#F4E6D0"/>
</svg>
