<svg width="128" height="128" viewBox="0 0 128 128" fill="none" xmlns="http://www.w3.org/2000/svg">
  <rect width="128" height="128" rx="32" fill="#0B1525"/>
  <circle cx="64" cy="64" r="22" fill="#05080E"/>
  <path d="M25 64C25 42.5 42.5 25 64 25C85.5 25 103 42.5 103 64C103 85.5 85.5 103 64 103C42.5 103 25 85.5 25 64Z" stroke="#F4E6D0" stroke-width="6"/>
  <path d="M86 39.5C96 44.5 103 54.2 103 64C103 73.8 96 83.5 86 88.5" stroke="#EDB47A" stroke-width="7" stroke-linecap="round"/>
  <path d="M82.5 45.5C89.4 49.7 94 56.4 94 64C94 71.6 89.4 78.3 82.5 82.5" stroke="#79A790" stroke-width="4.5" stroke-linecap="round"/>
  <path d="M58 28C61.5 24.5 66.5 24.5 70 28" stroke="#79A790" stroke-width="5" stroke-linecap="round"/>
  <circle cx="96" cy="58" r="2.5" fill="#F4E6D0"/>
</svg>
